<?xml version="1.0" standalone="no"?>
<!DOCTYPE svg PUBLIC "-//W3C//DTD SVG 20010904//EN"
 "http://www.w3.org/TR/2001/REC-SVG-20010904/DTD/svg10.dtd">
<svg version="1.0" xmlns="http://www.w3.org/2000/svg"
 width="512.000000pt" height="512.000000pt" viewBox="0 0 512.000000 512.000000"
 preserveAspectRatio="xMidYMid meet">
<metadata>
Created by potrace 1.14, written by Peter Selinger 2001-2017
</metadata>
<g transform="translate(0.000000,512.000000) scale(0.100000,-0.100000)"
fill="#000000" stroke="none">
<path d="M1747 3984 c-1 -1 -51 -4 -112 -8 -141 -8 -171 -12 -283 -42 -267
-69 -430 -210 -506 -437 -31 -92 -34 -106 -42 -202 -9 -99 -9 -1374 -1 -1468
19 -194 85 -347 197 -456 66 -63 70 -66 142 -105 122 -67 293 -111 470 -122
144 -9 2542 -11 2602 -2 65 10 94 39 104 104 12 78 6 513 -7 561 -21 78 -12
76 -531 79 -250 1 -464 5 -475 7 -74 19 -118 52 -135 102 -15 45 -20 1028 -6
1076 21 68 71 110 151 125 22 4 238 8 480 9 460 1 483 3 505 45 20 37 22 68
24 318 1 279 -6 335 -47 366 -28 21 -35 21 -640 21 -461 0 -629 -3 -681 -13
-64 -12 -70 -12 -90 7 -11 11 -39 23 -61 27 -31 6 -1051 13 -1058 8z m513
-1432 l0 -668 -222 1 c-237 2 -258 6 -302 54 -39 43 -43 94 -41 626 2 536 3
544 48 594 47 50 95 59 325 60 l192 1 0 -668z"/>
</g>
</svg>
