<?xml version="1.0" standalone="no"?>
<!DOCTYPE svg PUBLIC "-//W3C//DTD SVG 20010904//EN"
 "http://www.w3.org/TR/2001/REC-SVG-20010904/DTD/svg10.dtd">
<svg version="1.0" xmlns="http://www.w3.org/2000/svg"
 width="512.000000pt" height="512.000000pt" viewBox="0 0 512.000000 512.000000"
 preserveAspectRatio="xMidYMid meet">
<metadata>
Created by potrace 1.14, written by Peter Selinger 2001-2017
</metadata>
<g transform="translate(0.000000,512.000000) scale(0.100000,-0.100000)"
fill="#000000" stroke="none">
<path d="M1690 4020 l0 -100 -280 0 -280 0 0 -205 0 -205 280 0 280 0 0 -105
0 -105 235 0 235 0 0 105 0 105 195 0 195 0 0 205 0 205 -195 0 -194 0 -3 98
-3 97 -232 3 -233 2 0 -100z"/>
<path d="M3080 4020 l0 -100 -210 0 -210 0 0 -205 0 -205 210 0 210 0 0 -105
0 -105 235 0 235 0 0 105 0 105 260 0 260 0 0 205 0 205 -260 0 -260 0 0 100
0 100 -235 0 -235 0 0 -100z"/>
<path d="M1800 3000 l0 -230 -95 0 -95 0 -2 198 -3 197 -202 3 -203 2 0 -395
0 -395 300 0 300 0 0 -80 0 -80 -345 0 -345 0 0 -205 0 -205 80 0 c79 0 80 0
80 -25 0 -48 -31 -174 -58 -243 -34 -82 -87 -163 -141 -217 -23 -21 -41 -44
-41 -50 0 -5 19 -21 43 -34 59 -34 194 -137 245 -188 23 -24 46 -43 51 -43 10
0 76 79 118 140 98 145 157 337 178 583 l7 77 64 0 64 0 0 -395 0 -395 225 0
225 0 0 1105 0 1105 -225 0 -225 0 0 -230z"/>
<path d="M2970 2945 l0 -285 -310 0 -310 0 0 -215 0 -215 308 -2 307 -3 3
-337 2 -338 -285 0 -285 0 0 -215 0 -215 830 0 830 0 0 215 0 215 -310 0 -310
0 0 340 0 340 330 0 330 0 0 215 0 215 -330 0 -330 0 0 285 0 285 -235 0 -235
0 0 -285z"/>
</g>
</svg>
